<svg width="864" height="422" fill="none" xmlns="http://www.w3.org/2000/svg"><path d="M1 348.425c121.144-48.843 186.445-113.262 224.106-165.961 31.394-43.935 30.837-61.907 64.174-94.687 72.342-71.13 210.923-120.18 278.087-59.054 33.085 30.111 20.847 68.27 36.672 140.507 14.237 64.981 51.046 154.354 153.814 251.484" stroke="#05AFF8" stroke-width="1.679" stroke-miterlimit="10"/><path d="M1.403 332.622c117.823-41.965 182.465-102.549 220.104-151.854 31.669-41.498 34.244-58.092 69.65-90.298 74.274-67.563 204.409-114.6 271.661-57.582 34.642 29.367 26.762 66.862 45.303 138.866 16.323 63.391 53.881 151.21 154.869 247.44" stroke="#05AFF8" stroke-width="1.679" stroke-miterlimit="10"/><path d="M1.315 316.582c114.498-35.132 178.531-91.964 216.104-137.914 32.009-39.144 37.587-54.341 75.125-86.009 76.04-64.148 198.092-109.254 265.235-56.175 36.272 28.678 32.614 65.494 53.928 137.381 18.345 61.856 56.715 148.231 155.928 243.666" stroke="#05AFF8" stroke-width="1.679" stroke-miterlimit="10"/><path d="M1.58 301.328c111.175-28.246 174.663-81.252 212.109-123.773 32.39-36.761 40.865-50.512 80.608-81.575C371.953 35.255 486.263-7.887 553.106 41.297c37.978 27.942 38.406 63.993 62.555 135.688 20.28 60.212 59.549 145.024 156.973 239.526" stroke="#05AFF8" stroke-width="1.679" stroke-miterlimit="10"/><path d="M1.991 285.462c107.866-21.388 170.873-70.636 208.117-109.754 32.83-34.478 44.107-46.782 86.07-77.26 79.137-57.459 186.025-98.726 252.39-53.25 39.762 27.244 44.136 62.548 71.183 134.148 22.15 58.632 62.385 141.985 158.027 235.647" stroke="#05AFF8" stroke-width="1.679" stroke-miterlimit="10"/><path d="M2.401 269.588c104.536-14.524 167.162-59.995 204.123-95.707 33.338-32.21 47.269-43.057 91.543-72.906 80.497-54.277 180.24-93.693 245.967-51.808 41.616 26.522 49.779 61.074 79.807 132.573 23.944 57.038 65.218 138.902 159.081 231.723" stroke="#05AFF8" stroke-width="1.679" stroke-miterlimit="10"/><path d="M2.295 253.627c101.215-7.645 163.548-49.319 200.131-81.638 33.919-29.966 50.393-39.358 97.012-68.54 81.759-51.176 174.604-88.776 239.548-50.35 43.538 25.761 55.377 59.585 88.43 130.967 25.672 55.442 68.06 135.793 160.134 227.74" stroke="#05AFF8" stroke-width="1.679" stroke-miterlimit="10"/><path d="M2.703 237.84c97.961-.784 160.148-38.607 196.272-67.55 34.612-27.732 53.518-35.694 102.55-64.158 82.987-48.161 169.213-83.976 233.287-48.88 45.559 24.953 60.93 58.086 97.118 129.331 27.338 53.84 70.922 132.641 161.288 223.7" stroke="#05AFF8" stroke-width="1.679" stroke-miterlimit="10"/><path d="M2.976 222.62c94.636 6.079 156.746-27.848 192.272-53.459 35.384-25.5 56.553-32.083 108.021-59.759 84.091-45.234 163.814-79.298 226.856-47.401 47.616 24.086 66.371 56.596 105.741 127.662 28.945 52.246 73.763 129.471 162.358 219.603" stroke="#05AFF8" stroke-width="1.679" stroke-miterlimit="10"/><path d="M3.392 206.664c91.32 12.949 153.468-17.056 188.282-39.431 36.239-23.289 59.563-28.54 113.493-55.435 85.129-42.451 158.508-74.847 220.439-45.976 49.72 23.178 71.743 55.199 114.367 126.146 30.485 50.74 76.598 126.45 163.401 215.773" stroke="#05AFF8" stroke-width="1.679" stroke-miterlimit="10"/><path d="M3.283 190.929c88.01 19.796 150.306-6.154 184.291-25.337 37.208-21.004 62.543-25.016 118.963-51.014 86.126-39.688 153.282-70.404 214.017-44.476 51.881 22.15 77.042 53.746 122.99 124.414 31.969 49.171 79.431 123.21 164.454 211.564" stroke="#05AFF8" stroke-width="1.679" stroke-miterlimit="10"/><path d="M3.696 175.072c84.679 26.661 147.256 4.833 180.299-11.289 38.284-18.682 65.51-21.589 124.432-46.664 87.094-37.058 148.123-66.174 207.599-43.028 54.092 21.05 82.275 52.402 131.612 122.833 33.41 47.698 82.263 120.13 165.507 207.63" stroke="#05AFF8" stroke-width="1.679" stroke-miterlimit="10"/><path d="M3.97 159.788c81.36 33.52 144.302 15.944 176.308 2.762 39.46-16.252 68.439-18.212 129.902-42.298 88.036-34.5 143.005-62.05 201.182-41.57 56.334 19.833 87.44 51.095 140.23 121.224 34.809 46.243 85.095 117.015 166.561 203.64" stroke="#05AFF8" stroke-width="1.679" stroke-miterlimit="10"/><path d="M3.871 143.496c78.042 40.434 141.43 27.225 172.318 16.835 40.725-13.7 71.363-14.921 135.365-37.986 88.965-32.062 137.922-58.112 194.766-40.171 58.629 18.514 92.547 49.921 148.85 119.783 36.179 44.888 87.93 114.067 167.617 199.923" stroke="#05AFF8" stroke-width="1.679" stroke-miterlimit="10"/><path d="M4.276 127.815C79.001 175.09 142.89 166.422 172.598 158.7c42.056-10.93 74.279-11.661 140.839-33.601 89.892-29.629 132.852-54.184 188.352-38.69 60.943 17.015 97.6 48.712 157.469 118.115 37.511 43.482 90.76 110.884 168.668 195.828" stroke="#05AFF8" stroke-width="1.679" stroke-miterlimit="10"/><path d="M4.686 112.247c71.463 54.095 135.901 50.114 164.444 44.909 43.447-7.923 77.237-8.466 146.397-29.212C406.396 100.677 443.39 77.6 497.58 90.738c63.313 15.355 102.664 47.555 166.189 116.409 38.851 42.111 93.649 107.688 169.826 191.69" stroke="#05AFF8" stroke-width="1.679" stroke-miterlimit="10"/><path d="M5.09 96.274c68.133 60.988 133.388 53.938 160.455 58.989 44.271 8.263 80.146-5.346 151.869-24.865 91.801-24.989 122.767-46.672 175.624-35.772 65.655 13.533 107.626 46.554 174.812 114.876 40.147 40.829 96.482 104.643 170.882 187.815" stroke="#05AFF8" stroke-width="1.679" stroke-miterlimit="10"/><path d="M4.857 80.586c64.817 67.898 130.843 67.183 156.464 73.096 44.904 10.362 83.054-2.283 157.334-20.518 92.765-22.781 117.654-43.094 169.218-34.34 67.987 11.528 112.547 45.623 183.428 113.359 41.435 39.593 99.313 101.61 171.933 183.978" stroke="#05AFF8" stroke-width="1.679" stroke-miterlimit="10"/><path d="M5.267 64.856c61.499 74.747 127.987 80.621 152.474 87.138 45.709 12.165 85.968.723 162.803-16.158 93.731-20.582 112.488-39.535 162.801-32.878 70.303 9.305 117.439 44.728 192.046 111.724 42.713 38.354 102.146 98.478 172.986 179.949" stroke="#05AFF8" stroke-width="1.679" stroke-miterlimit="10"/><path d="M5.676 49.13c58.18 81.586 124.041 97.573 148.487 101.168 48.151 7.066 88.891 3.672 168.268-11.787 94.726-18.438 107.265-36.054 156.388-31.411 72.579 6.867 122.301 43.918 200.665 110.093 43.991 37.152 104.976 95.335 174.035 175.914" stroke="#05AFF8" stroke-width="1.679" stroke-miterlimit="10"/><path d="M6.085 33.403c54.864 88.425 120.745 109.591 144.497 115.192 48.833 11.516 91.824 6.565 173.734-7.419 95.743-16.339 101.968-32.643 149.976-29.95 74.807 4.195 127.149 43.166 209.278 108.459 45.272 35.992 107.806 92.207 175.092 171.895" stroke="#05AFF8" stroke-width="1.679" stroke-miterlimit="10"/><path d="M5.982 17.024c51.55 95.397 117.242 121.772 140.51 129.396 49.233 16.141 94.768 9.415 179.2-3.058 96.787-14.297 96.584-29.324 143.564-28.529 76.961 1.311 131.978 42.561 217.893 106.981 46.554 34.904 110.634 89.208 176.143 168.114" stroke="#05AFF8" stroke-width="1.679" stroke-miterlimit="10"/></svg>