<svg width="1685" height="823" fill="none" xmlns="http://www.w3.org/2000/svg"><g opacity=".8" stroke="#05AFF8" stroke-width="3.275" stroke-miterlimit="10"><path d="M1.299 142.76c236.327 95.284 363.716 220.951 437.185 323.756 61.244 85.71 60.158 120.77 125.19 184.716 141.127 138.76 411.47 234.448 542.496 115.203 64.54-58.741 40.67-133.181 71.54-274.1 27.77-126.767 99.58-301.116 300.06-490.597"/><path d="M2.095 173.598c229.849 81.864 355.953 200.053 429.378 296.236 61.78 80.954 66.804 113.326 135.874 176.154 144.894 131.8 398.76 223.56 529.953 112.329 67.58-57.288 52.21-130.433 88.38-270.898 31.84-123.664 105.11-294.981 302.12-482.707"/><path d="M1.9 204.881c223.363 68.536 348.279 179.404 421.577 269.042 62.443 76.364 73.324 106.01 146.554 167.787 148.338 125.14 386.437 213.133 517.419 109.586 70.76-55.944 63.62-127.765 105.2-268.002 35.79-120.669 110.64-289.168 304.19-475.343"/><path d="M2.432 234.632c216.88 55.1 340.732 158.505 413.781 241.456 63.187 71.713 79.72 98.537 157.25 159.136 151.491 118.462 374.488 202.623 504.887 106.675 74.08-54.509 74.92-124.838 122.03-264.699 39.56-117.462 116.17-282.913 306.22-467.267"/><path d="M3.228 265.596c210.425 41.722 333.34 137.795 405.996 214.108 64.043 67.259 86.044 91.262 167.904 150.717 154.381 112.091 362.897 192.596 492.362 103.882 77.57-53.149 86.1-122.019 138.86-261.697 43.21-114.38 121.71-276.983 308.28-459.7"/><path d="M4.025 296.551c203.928 28.333 326.099 117.038 398.204 186.704 65.034 62.836 92.212 83.997 178.581 142.226 157.033 105.882 351.612 182.775 479.83 101.067 81.19-51.74 97.11-119.143 155.69-258.625 46.71-111.268 127.23-270.969 310.34-452.044"/><path d="M3.83 327.694c197.451 14.913 319.05 96.211 390.416 159.258 66.17 58.458 98.308 76.781 189.252 133.709 159.495 99.833 340.616 173.184 467.312 98.223 84.93-50.256 108.03-116.239 172.51-255.491 50.08-108.156 132.77-264.904 312.39-444.275"/><path d="M4.627 358.492c191.103 1.53 312.416 75.315 382.887 131.776 67.522 54.101 104.404 69.633 200.055 125.161 161.891 93.952 330.101 163.819 455.091 95.354 88.88-48.678 118.87-113.314 189.46-252.298 53.33-105.032 138.36-258.755 314.64-436.394"/><path d="M5.159 388.181c184.616-11.857 305.78 54.326 375.084 104.289 69.026 49.746 110.323 62.586 210.727 116.577 164.046 88.242 319.569 154.694 442.55 92.47C1126.41 654.53 1163 591.11 1239.8 452.474c56.47-101.922 143.9-252.572 316.73-428.4"/><path d="M5.955 419.308c178.145-25.26 299.385 33.274 367.299 76.922 70.697 45.433 116.196 55.675 221.403 108.142 166.07 82.814 309.218 146.013 430.033 89.69 96.99-45.216 139.96-107.682 223.11-246.086 59.47-98.982 149.42-246.678 318.76-420.93"/><path d="M5.76 450.001c171.689-38.617 293.217 12.006 359.515 49.428 72.586 40.975 122.009 48.801 232.073 99.518 168.015 77.423 299.022 137.345 417.502 86.764 101.21-43.209 150.3-104.847 239.93-242.706 62.37-95.923 154.95-240.358 320.82-412.72"/><path d="M6.558 480.932c165.19-52.011 287.266-9.428 351.727 22.023 74.684 36.445 127.797 42.115 242.741 91.031 169.902 72.293 288.958 129.093 404.984 83.939 105.52-41.063 160.5-102.225 256.75-239.622 65.18-93.048 160.48-234.349 322.87-405.045"/><path d="M7.089 510.765c158.714-65.392 281.504-31.104 343.941-5.388 76.978 31.705 133.511 35.527 253.413 82.515 171.74 67.304 278.974 121.047 392.465 81.094 109.892-38.689 170.582-99.676 273.562-236.484 67.9-90.21 166-228.273 324.93-397.261"/><path d="M6.894 542.534c152.245-78.877 275.903-53.11 336.158-32.841 79.446 26.725 139.216 29.108 264.07 74.104 173.554 62.546 269.058 113.363 379.951 78.366 114.367-36.119 180.537-97.387 290.377-233.674 70.58-87.567 171.53-222.521 326.99-390.01"/><path d="M7.69 573.117c145.774-92.222 270.407-75.314 328.362-60.249 82.043 21.321 144.905 22.748 274.75 65.547 175.36 57.801 259.166 105.703 367.436 75.476 118.892-33.191 190.402-95.025 307.192-230.418 73.17-84.824 177.05-216.311 329.04-382.02"/><path d="M8.488 603.506c139.41-105.528 265.116-97.762 320.797-87.608 84.756 15.456 150.673 16.516 285.591 56.986 177.267 53.193 249.435 98.213 355.148 72.582 123.516-29.955 200.276-92.771 324.206-227.091 75.79-82.149 182.69-210.078 331.29-373.95"/><path d="M9.284 634.674C142.2 515.699 269.5 529.452 322.3 519.599c86.365-16.12 156.35 10.428 296.266 48.507 179.087 48.749 239.494 91.047 342.608 69.783C1089.25 611.49 1171.13 547.071 1302.2 413.79c78.32-79.649 188.21-204.138 333.35-366.391"/><path d="M8.824 665.27c126.444-132.455 255.248-131.061 305.228-142.595 87.601-20.214 162.024 4.452 306.929 40.026 180.965 44.441 229.518 84.068 330.109 66.99 132.63-22.489 219.56-89.001 357.83-221.14 80.83-77.238 193.74-198.221 335.41-358.904"/><path d="M9.62 695.946C129.593 550.129 259.298 538.67 307.067 525.955c89.17-23.731 167.706-1.41 317.596 31.522 182.851 40.151 219.442 77.125 317.592 64.138 137.146-18.151 229.096-87.256 374.646-217.951 83.32-74.821 199.26-192.111 337.46-351.044"/><path d="M10.418 726.622c113.499-159.157 241.979-190.344 289.668-197.357 93.934-13.784 173.409-7.163 328.258 22.994 184.792 35.97 209.252 70.334 305.081 61.276 141.585-13.396 238.585-85.676 391.455-214.769 85.82-72.475 204.79-185.979 339.51-343.173"/><path d="M11.214 757.298c107.029-172.5 235.551-213.79 281.886-224.718 95.263-22.465 179.129-12.806 338.919 14.474 186.775 31.873 198.919 63.679 292.573 58.425 145.938-8.182 248.048-84.206 408.258-211.58 88.32-70.214 210.31-179.878 341.57-335.333"/><path d="M11.02 789.266C111.583 603.165 239.737 551.714 285.127 536.84c96.044-31.488 184.873-18.365 349.584 5.967 188.813 27.89 188.416 57.205 280.065 55.653 150.134-2.557 257.464-83.028 425.064-208.698 90.82-68.089 215.83-174.026 343.62-327.957"/></g></svg>