<svg width="122" height="74" fill="none" xmlns="http://www.w3.org/2000/svg"><path fill-rule="evenodd" clip-rule="evenodd" d="M64 6c11.598 0 21 9.402 21 21 0 10.923-8.34 19.899-19 20.906V70a2 2 0 11-4 0V47.906C51.34 46.899 43 37.923 43 27c0-11.598 9.402-21 21-21z" fill="#3CB1E6"/><path d="M71 27a7 7 0 10-14 0 7 7 0 0014 0z" fill="#fff"/><path opacity=".3" d="M64 74c2.761 0 5-1.12 5-2.5S66.761 69 64 69s-5 1.12-5 2.5 2.239 2.5 5 2.5z" fill="#3CB1E6"/><rect x="1.5" y="1.5" width="119" height="44" rx="22" fill="#fff" stroke="#3CB1E6" stroke-width="3"/><path d="M48.832 19.01l-1.116.864a6.048 6.048 0 00-2.222-1.835c-.859-.42-1.805-.63-2.838-.63a6.21 6.21 0 00-3.135.824 5.855 5.855 0 00-2.241 2.204c-.526.92-.789 1.955-.789 3.107 0 1.74.59 3.193 1.77 4.359 1.186 1.165 2.68 1.747 4.482 1.747 1.981 0 3.64-.783 4.973-2.35l1.116.855a7.177 7.177 0 01-2.645 2.107c-1.052.492-2.228.737-3.53.737-2.476 0-4.428-.83-5.859-2.495C35.6 27.1 35 25.404 35 23.417c0-2.09.724-3.847 2.174-5.271 1.455-1.43 3.276-2.145 5.464-2.145 1.32 0 2.513.265 3.578.796a6.923 6.923 0 012.616 2.213zm9.59-3.01c2.142 0 3.934.722 5.377 2.165 1.443 1.444 2.164 3.22 2.164 5.33 0 2.09-.721 3.864-2.164 5.32C62.363 30.272 60.609 31 58.537 31c-2.096 0-3.866-.725-5.31-2.175-1.442-1.45-2.164-3.204-2.164-5.262a7.7 7.7 0 01.982-3.815A7.208 7.208 0 0154.738 17a7.148 7.148 0 013.684-1zm.068 1.398a5.775 5.775 0 00-2.973.826 5.906 5.906 0 00-2.193 2.223c-.526.932-.788 1.97-.788 3.116 0 1.696.58 3.13 1.74 4.3 1.167 1.166 2.572 1.748 4.213 1.748a5.974 5.974 0 003.04-.805 5.696 5.696 0 002.183-2.204c.527-.932.79-1.968.79-3.107 0-1.133-.263-2.155-.79-3.068a5.838 5.838 0 00-2.202-2.203 5.93 5.93 0 00-3.02-.826zm8.849 10.583l1.202-.728c.847 1.572 1.825 2.358 2.934 2.358.475 0 .92-.11 1.337-.33.417-.226.735-.527.953-.902.214-.361.327-.774.327-1.194 0-.48-.16-.949-.482-1.408-.442-.635-1.25-1.398-2.423-2.291-1.18-.9-1.915-1.55-2.203-1.951-.5-.674-.75-1.402-.75-2.186 0-.62.147-1.186.442-1.698a3.15 3.15 0 011.24-1.204A3.563 3.563 0 0171.669 16a3.64 3.64 0 011.866.506c.583.33 1.199.941 1.846 1.834l-1.154.884c-.532-.712-.987-1.181-1.365-1.408a2.307 2.307 0 00-1.223-.34c-.57 0-1.038.174-1.404.524a1.725 1.725 0 00-.538 1.292c0 .31.064.611.192.902.128.291.362.609.703.952.185.181.794.657 1.827 1.427 1.225.913 2.065 1.725 2.52 2.437.456.712.683 1.427.683 2.146 0 1.035-.391 1.935-1.174 2.698-.776.764-1.721 1.145-2.837 1.145a4.17 4.17 0 01-2.338-.689c-.698-.465-1.343-1.242-1.933-2.33zm10.629 2.66l2.01-14.281h.231l5.753 11.718 5.694-11.718h.23l2.03 14.28h-1.394l-1.386-10.213-5.001 10.213h-.357L80.71 20.35l-1.375 10.29h-1.366zM103.459 16c2.142 0 3.934.72 5.377 2.164 1.443 1.444 2.164 3.22 2.164 5.33 0 2.09-.721 3.864-2.164 5.32-1.437 1.457-3.191 2.185-5.262 2.185-2.097 0-3.867-.725-5.31-2.175-1.443-1.45-2.164-3.204-2.164-5.262 0-1.372.327-2.643.981-3.815A7.214 7.214 0 0199.775 17a7.148 7.148 0 013.684-1zm.067 1.397a5.775 5.775 0 00-2.972.826 5.912 5.912 0 00-2.194 2.223c-.525.932-.788 1.97-.788 3.116 0 1.696.58 3.13 1.74 4.3 1.168 1.166 2.572 1.748 4.214 1.748a5.972 5.972 0 003.04-.805 5.704 5.704 0 002.183-2.204c.526-.932.789-1.968.789-3.107 0-1.133-.263-2.155-.789-3.068a5.837 5.837 0 00-2.203-2.203 5.929 5.929 0 00-3.02-.826z" fill="#202325"/><path d="M11 16h7.918v1.38h-6.537v4.378h6.48v1.37h-6.48v5.492h6.48V30H11V16zm10.304 0h1.39v12.648H28V30h-6.696V16z" fill="#3CB1E6"/><path d="M31 16h1l-.25 3h-.5L31 16z" fill="#202325"/></svg>