<svg width="154" height="27" fill="none" xmlns="http://www.w3.org/2000/svg"><path d="M.385 7.27h1.862v4.883c.582-1.05 1.61-1.615 3.084-1.615 2.87 0 4.247 2.49 4.247 5.389 0 2.898-1.377 5.388-4.247 5.388-1.552 0-2.619-.642-3.181-1.712l-.058 1.479H.385V7.27zm1.687 8.657c0 1.887.834 3.657 2.774 3.657 1.978 0 2.793-1.731 2.793-3.657 0-1.984-.815-3.735-2.793-3.735-1.94 0-2.774 1.79-2.774 3.735zm8.266-5.155h1.978l2.948 8.209 2.832-8.21h1.978l-4.13 11.517C15.535 23.455 14.74 24 13.48 24h-1.338v-1.615h1.105c.543 0 .854-.214 1.048-.739l.349-.876h-.582l-3.724-9.998zm15.078-3.824h3.556v1.861h.053c.495-.709 1.088-1.258 1.777-1.648.708-.39 1.513-.585 2.415-.585.867 0 1.654.168 2.362.505.725.337 1.273.93 1.645 1.781.407-.602.955-1.134 1.645-1.595.708-.461 1.539-.692 2.494-.692.725 0 1.398.09 2.017.266.619.178 1.15.461 1.592.851.442.39.787.904 1.035 1.543.247.62.371 1.374.371 2.26v9.2H42.61v-7.79c0-.462-.017-.896-.053-1.304a2.768 2.768 0 00-.292-1.063 1.747 1.747 0 00-.716-.718c-.3-.178-.716-.266-1.247-.266-.53 0-.964.106-1.3.319a2.21 2.21 0 00-.77.798c-.177.319-.3.691-.371 1.117-.053.407-.08.824-.08 1.25v7.658h-3.768v-7.712c0-.408-.009-.806-.026-1.197a3.22 3.22 0 00-.24-1.116 1.538 1.538 0 00-.663-.798c-.3-.213-.751-.32-1.353-.32-.177 0-.416.045-.716.134a2.21 2.21 0 00-.85.452c-.265.213-.495.532-.69.957-.194.408-.291.949-.291 1.622v7.978h-3.768V6.948zm25.955 6.887c0 .55.053 1.09.16 1.622.106.514.283.984.53 1.41.266.407.61.735 1.035.983.425.249.955.373 1.592.373.637 0 1.168-.124 1.592-.373a2.767 2.767 0 001.035-.984 4.27 4.27 0 00.557-1.409 8.264 8.264 0 000-3.244 3.984 3.984 0 00-.557-1.41 2.767 2.767 0 00-1.035-.983c-.424-.266-.955-.4-1.592-.4-.637 0-1.167.134-1.592.4-.424.248-.77.576-1.035.984a4.317 4.317 0 00-.53 1.409 8.264 8.264 0 00-.16 1.622zm-3.768 0c0-1.1.169-2.092.505-2.978.336-.904.813-1.667 1.433-2.287a6.18 6.18 0 012.228-1.463c.867-.354 1.84-.532 2.92-.532 1.078 0 2.051.178 2.918.532a6.136 6.136 0 012.255 1.463c.62.62 1.097 1.383 1.433 2.287.336.886.504 1.879.504 2.978 0 1.1-.168 2.092-.504 2.978a6.6 6.6 0 01-1.433 2.287 6.31 6.31 0 01-2.255 1.436c-.867.337-1.84.505-2.919.505s-2.052-.168-2.919-.505a6.357 6.357 0 01-2.228-1.436 6.598 6.598 0 01-1.433-2.287c-.336-.886-.505-1.879-.505-2.978zm18.241 2.393c0 .408.08.763.239 1.064.177.284.398.523.663.718.265.177.566.31.902.399a4.457 4.457 0 001.91.053c.301-.07.567-.168.797-.293a1.99 1.99 0 00.61-.531c.16-.23.239-.515.239-.851 0-.567-.38-.993-1.141-1.277-.743-.283-1.787-.567-3.131-.85a24.052 24.052 0 01-1.619-.426 6.232 6.232 0 01-1.38-.665 3.42 3.42 0 01-.981-1.037c-.248-.425-.372-.94-.372-1.542 0-.887.168-1.614.504-2.18a3.816 3.816 0 011.38-1.33 5.588 5.588 0 011.91-.692 11.046 11.046 0 012.176-.213c.743 0 1.46.071 2.15.213a5.71 5.71 0 011.884.718c.548.337 1 .79 1.353 1.356.371.55.592 1.25.663 2.101h-3.582c-.053-.727-.327-1.214-.822-1.462-.496-.266-1.08-.4-1.752-.4-.212 0-.442.018-.69.054-.247.018-.477.07-.69.16a1.364 1.364 0 00-.504.398c-.141.16-.212.382-.212.665 0 .337.124.612.371.824.248.213.567.39.956.532.407.124.867.24 1.38.346.512.106 1.034.222 1.565.346.548.124 1.08.274 1.592.452.53.177 1 .416 1.406.718.407.283.735.647.982 1.09.248.425.372.957.372 1.596 0 .904-.186 1.666-.558 2.286a4.277 4.277 0 01-1.406 1.463 5.628 5.628 0 01-2.016.771c-.743.16-1.504.24-2.282.24-.796 0-1.575-.08-2.335-.24a6.31 6.31 0 01-2.044-.798 4.788 4.788 0 01-1.459-1.462c-.371-.62-.575-1.392-.61-2.314h3.582zm19.344-4.441c-.247-1.577-1.176-2.366-2.786-2.366-.601 0-1.105.142-1.512.425-.407.266-.743.62-1.008 1.064a4.635 4.635 0 00-.531 1.436 7.605 7.605 0 00-.16 1.542c0 .497.054 1.002.16 1.516.106.514.274.984.504 1.41.248.407.575.744.982 1.01.407.266.902.399 1.486.399.902 0 1.592-.248 2.07-.745.495-.514.804-1.197.928-2.048h3.635c-.247 1.826-.955 3.218-2.122 4.175-1.168.958-2.663 1.436-4.485 1.436-1.026 0-1.972-.168-2.839-.505a6.45 6.45 0 01-2.176-1.462 6.63 6.63 0 01-1.406-2.208c-.336-.868-.504-1.817-.504-2.845 0-1.064.15-2.047.45-2.952.32-.921.78-1.71 1.38-2.366a6.175 6.175 0 012.203-1.57c.867-.371 1.857-.558 2.972-.558a8.44 8.44 0 012.335.32c.76.212 1.433.54 2.017.983a4.944 4.944 0 011.459 1.623c.371.638.584 1.4.637 2.287h-3.689zm7.916 2.048c0 .55.053 1.09.159 1.622.106.514.283.984.53 1.41.266.407.611.735 1.035.983.425.249.956.373 1.593.373.636 0 1.167-.124 1.592-.373a2.768 2.768 0 001.034-.984 4.25 4.25 0 00.558-1.409 8.275 8.275 0 00-.001-3.244 3.988 3.988 0 00-.556-1.41 2.768 2.768 0 00-1.035-.983c-.425-.266-.956-.4-1.593-.4-.636 0-1.167.134-1.591.4-.425.248-.77.576-1.035.984a4.32 4.32 0 00-.531 1.409 8.28 8.28 0 00-.16 1.622zm-3.768 0c0-1.1.168-2.092.504-2.978.336-.904.814-1.667 1.433-2.287a6.18 6.18 0 012.229-1.463c.867-.354 1.84-.532 2.919-.532s2.052.178 2.918.532a6.135 6.135 0 012.256 1.463c.619.62 1.096 1.383 1.433 2.287.336.886.503 1.879.503 2.978 0 1.1-.167 2.092-.503 2.978a6.616 6.616 0 01-1.433 2.287 6.308 6.308 0 01-2.256 1.436c-.866.337-1.84.505-2.918.505-1.08 0-2.052-.168-2.92-.505a6.357 6.357 0 01-2.228-1.436 6.598 6.598 0 01-1.433-2.287c-.336-.886-.504-1.879-.504-2.978zm31 6.861h-3.874l-2.441-9.227h-.053l-2.335 9.227h-3.901l-4.351-13.748h3.98l2.52 9.334h.054l2.282-9.334h3.661l2.335 9.308h.053l2.521-9.308h3.874l-4.325 13.748zm13.837-8.35c-.177-.957-.496-1.684-.955-2.18-.442-.497-1.124-.745-2.044-.745-.601 0-1.105.106-1.512.319a2.885 2.885 0 00-.955.745c-.23.3-.398.62-.505.957-.088.337-.14.638-.159.904h6.13zm-6.13 2.393c.053 1.223.363 2.11.929 2.66.566.549 1.38.824 2.441.824.761 0 1.415-.186 1.964-.559.548-.39.884-.798 1.008-1.223h3.317c-.531 1.649-1.345 2.828-2.441 3.537-1.097.709-2.423 1.063-3.981 1.063-1.079 0-2.051-.168-2.919-.505a6.209 6.209 0 01-2.201-1.489 6.785 6.785 0 01-1.406-2.287c-.32-.886-.479-1.861-.479-2.925 0-1.028.169-1.986.505-2.872a6.587 6.587 0 011.433-2.287 6.682 6.682 0 012.202-1.542c.866-.372 1.822-.559 2.865-.559 1.169 0 2.186.231 3.052.692a5.856 5.856 0 012.123 1.808 7.35 7.35 0 011.22 2.606 9.71 9.71 0 01.266 3.058h-9.898zm20.863-.904c0-.585-.062-1.143-.185-1.675a4.395 4.395 0 00-.585-1.41 2.879 2.879 0 00-1.008-.957c-.389-.248-.866-.372-1.432-.372-.549 0-1.027.124-1.433.372-.407.23-.744.55-1.008.958a4.39 4.39 0 00-.585 1.41 7.414 7.414 0 00-.185 1.674c0 .568.062 1.117.185 1.65.125.53.319 1 .585 1.409a3.13 3.13 0 001.008.983c.406.23.884.346 1.433.346.566 0 1.043-.115 1.432-.346a3.13 3.13 0 001.008-.983 4.4 4.4 0 00.585-1.41 7.293 7.293 0 00.185-1.649zM138.85 1.71h3.768v6.913h.052a3.952 3.952 0 011.858-1.542 6.27 6.27 0 012.467-.505c.69 0 1.371.142 2.044.425a5.11 5.11 0 011.804 1.303c.548.585.991 1.339 1.327 2.26.336.905.504 1.986.504 3.245 0 1.259-.168 2.349-.504 3.27-.336.905-.779 1.65-1.327 2.234a5.11 5.11 0 01-1.804 1.303 5.222 5.222 0 01-2.044.426c-1.008 0-1.909-.16-2.706-.479a3.438 3.438 0 01-1.804-1.622h-.053v1.755h-3.582V1.71z" fill="#fff"/></svg>