<?xml version="1.0" encoding="utf-8"?><svg viewBox="0 0 38 24" xmlns="http://www.w3.org/2000/svg" xmlns:xlink="http://www.w3.org/1999/xlink"><style>:root>svg{display:none}:root>svg:target{display:block}</style><svg fill="none" viewBox="0 0 38 14" id="icon-arrow-to" xmlns="http://www.w3.org/2000/svg"><path d="M29.692 0C32.87 3.401 35.64 5.562 38 6.484v.876c-2.562 1.143-5.338 3.356-8.328 6.64h-1.55c1.275-2.687 2.596-4.693 3.964-6.017H0V6.017h32.086A29.228 29.228 0 0128.163 0h1.529z" fill="currentColor"/></svg><svg fill="none" viewBox="0 0 23 23" id="icon-plus" xmlns="http://www.w3.org/2000/svg"><path d="M11 0v23M0 11h23" stroke="currentColor"/></svg><svg fill="none" viewBox="0 0 32 24" id="icon-quote" xmlns="http://www.w3.org/2000/svg"><path d="M6.298.006c2.303.137 3.962.992 4.978 2.564C12.292 4.142 12.8 5.92 12.8 7.902c0 2.392-.474 4.682-1.422 6.87-1.016 2.255-2.303 4.204-3.86 5.844-1.558 1.64-3.251 2.769-5.08 3.384L0 20.616c.88-.615 1.76-1.435 2.641-2.46a25.407 25.407 0 002.235-3.077 13.323 13.323 0 001.32-3.28c-1.218-.07-2.268-.377-3.148-.924-.88-.478-1.558-1.128-2.032-1.948-.474-.82-.711-1.811-.711-2.973 0-1.914.575-3.418 1.727-4.512C3.183.417 4.605-.062 6.298.006zm19.099 0c2.37.069 4.063.89 5.08 2.461C31.491 4.107 32 5.92 32 7.902c0 2.392-.474 4.682-1.422 6.87-1.016 2.255-2.303 4.204-3.86 5.844-1.558 1.64-3.251 2.769-5.08 3.384L19.2 20.616c.88-.615 1.76-1.435 2.641-2.46a25.413 25.413 0 002.235-3.077 13.324 13.324 0 001.32-3.28c-1.218-.07-2.268-.377-3.148-.924-.88-.478-1.558-1.128-2.032-1.948-.474-.82-.711-1.811-.711-2.973 0-1.914.61-3.384 1.828-4.41C22.485.52 23.84.006 25.397.006z" fill="#3CB1E6"/></svg><svg fill="none" viewBox="0 0 24 24" id="icon-search" xmlns="http://www.w3.org/2000/svg"><path d="M11 19a8 8 0 100-16 8 8 0 000 16zM21 21l-4-4" stroke="currentColor" stroke-linecap="round" stroke-linejoin="round"/></svg></svg>