<?xml version="1.0" encoding="utf-8"?><svg viewBox="0 0 38 24" xmlns="http://www.w3.org/2000/svg" xmlns:xlink="http://www.w3.org/1999/xlink"><style>:root>svg{display:none}:root>svg:target{display:block}</style><svg fill="none" viewBox="0 0 38 14" id="icon-arrow-to" xmlns="http://www.w3.org/2000/svg"><path d="M29.692 0C32.87 3.401 35.64 5.562 38 6.484v.876c-2.562 1.143-5.338 3.356-8.328 6.64h-1.55c1.275-2.687 2.596-4.693 3.964-6.017H0V6.017h32.086A29.228 29.228 0 0128.163 0h1.529z" fill="currentColor"/></svg><svg fill="none" viewBox="0 0 23 23" id="icon-plus" xmlns="http://www.w3.org/2000/svg"><path d="M11 0v23M0 11h23" stroke="currentColor"/></svg><svg fill="none" viewBox="0 0 32 24" id="icon-quote" xmlns="http://www.w3.org/2000/svg"><path d="M6.298.006c2.303.137 3.962.992 4.978 2.564C12.292 4.142 12.8 5.92 12.8 7.902c0 2.392-.474 4.682-1.422 6.87-1.016 2.255-2.303 4.204-3.86 5.844-1.558 1.64-3.251 2.769-5.08 3.384L0 20.616c.88-.615 1.76-1.435 2.641-2.46a25.407 25.407 0 002.235-3.077 13.323 13.323 0 001.32-3.28c-1.218-.07-2.268-.377-3.148-.924-.88-.478-1.558-1.128-2.032-1.948-.474-.82-.711-1.811-.711-2.973 0-1.914.575-3.418 1.727-4.512C3.183.417 4.605-.062 6.298.006zm19.099 0c2.37.069 4.063.89 5.08 2.461C31.491 4.107 32 5.92 32 7.902c0 2.392-.474 4.682-1.422 6.87-1.016 2.255-2.303 4.204-3.86 5.844-1.558 1.64-3.251 2.769-5.08 3.384L19.2 20.616c.88-.615 1.76-1.435 2.641-2.46a25.413 25.413 0 002.235-3.077 13.324 13.324 0 001.32-3.28c-1.218-.07-2.268-.377-3.148-.924-.88-.478-1.558-1.128-2.032-1.948-.474-.82-.711-1.811-.711-2.973 0-1.914.61-3.384 1.828-4.41C22.485.52 23.84.006 25.397.006z" fill="#3CB1E6"/></svg><svg fill="none" viewBox="0 0 24 24" id="icon-search" xmlns="http://www.w3.org/2000/svg"><path d="M11 19a8 8 0 100-16 8 8 0 000 16zM21 21l-4-4" stroke="currentColor" stroke-linecap="round" stroke-linejoin="round"/></svg><svg fill="none" viewBox="0 0 20 20" id="icon-tg" xmlns="http://www.w3.org/2000/svg"><path fill-rule="evenodd" clip-rule="evenodd" d="M2.094 9.04c4.921-2.143 8.203-3.557 9.845-4.24 4.688-1.95 5.662-2.289 6.297-2.3.14-.002.452.032.654.196.17.139.218.326.24.458.023.131.05.43.029.664-.255 2.67-1.354 9.147-1.913 12.137-.237 1.265-.703 1.69-1.154 1.731-.98.09-1.724-.648-2.674-1.27-1.486-.974-2.325-1.58-3.767-2.531-1.667-1.098-.587-1.702.363-2.689.249-.258 4.568-4.187 4.652-4.543.01-.045.02-.21-.079-.299-.098-.087-.244-.057-.35-.033-.148.033-2.522 1.602-7.12 4.706-.674.463-1.284.688-1.83.676-.603-.013-1.763-.34-2.625-.62-1.057-.344-1.897-.526-1.824-1.11.038-.304.457-.615 1.256-.932z" fill="currentColor"/></svg><svg fill="none" viewBox="0 0 20 20" id="icon-vk" xmlns="http://www.w3.org/2000/svg"><path d="M10.893 16.238C4.06 16.238.163 11.553 0 3.758h3.423c.112 5.722 2.636 8.145 4.634 8.645V3.758h3.223v4.935c1.974-.213 4.048-2.461 4.747-4.935h3.223c-.537 3.048-2.785 5.297-4.384 6.221 1.599.75 4.16 2.711 5.134 6.259h-3.548c-.762-2.373-2.66-4.21-5.172-4.46v4.46h-.387z" fill="currentColor"/></svg><svg fill="none" viewBox="0 0 16 16" id="icon-whapp" xmlns="http://www.w3.org/2000/svg"><path d="M15.374 4.603a7.553 7.553 0 00-1.722-2.4A8.123 8.123 0 0011.108.59 8.324 8.324 0 008.003 0c-1.076 0-2.12.196-3.105.59a8.007 8.007 0 00-2.543 1.613 7.554 7.554 0 00-1.722 2.4A7.184 7.184 0 000 7.554c0 1.79.665 3.508 1.885 4.873L1.233 16l3.47-1.555a8.265 8.265 0 003.294.67c1.076 0 2.12-.197 3.104-.59a8.006 8.006 0 002.544-1.614 7.554 7.554 0 001.722-2.4A7.185 7.185 0 0016 7.56a7.105 7.105 0 00-.626-2.958z" fill="currentColor"/></svg></svg>